<svg width="182" height="47" viewBox="0 0 182 47" fill="none" xmlns="http://www.w3.org/2000/svg">
<path d="M79.816 15.632L71.068 36.188C70.18 38.42 69.076 39.992 67.756 40.904C66.46 41.816 64.888 42.272 63.04 42.272C62.032 42.272 61.036 42.116 60.052 41.804C59.068 41.492 58.264 41.06 57.64 40.508L59.692 36.512C60.124 36.896 60.616 37.196 61.168 37.412C61.744 37.628 62.308 37.736 62.86 37.736C63.628 37.736 64.252 37.544 64.732 37.16C65.212 36.8 65.644 36.188 66.028 35.324L66.1 35.144L57.712 15.632H63.508L68.944 28.772L74.416 15.632H79.816ZM83.0715 35.288C82.0875 35.288 81.2595 34.952 80.5875 34.28C79.9155 33.608 79.5795 32.768 79.5795 31.76C79.5795 30.728 79.9155 29.9 80.5875 29.276C81.2595 28.628 82.0875 28.304 83.0715 28.304C84.0555 28.304 84.8835 28.628 85.5555 29.276C86.2275 29.9 86.5635 30.728 86.5635 31.76C86.5635 32.768 86.2275 33.608 85.5555 34.28C84.8835 34.952 84.0555 35.288 83.0715 35.288ZM102.721 34.064C102.169 34.472 101.485 34.784 100.669 35C99.8767 35.192 99.0367 35.288 98.1487 35.288C95.8447 35.288 94.0567 34.7 92.7847 33.524C91.5367 32.348 90.9127 30.62 90.9127 28.34V20.384H87.9247V16.064H90.9127V11.348H96.5287V16.064H101.353V20.384H96.5287V28.268C96.5287 29.084 96.7327 29.72 97.1407 30.176C97.5727 30.608 98.1727 30.824 98.9407 30.824C99.8287 30.824 100.585 30.584 101.209 30.104L102.721 34.064ZM108.349 35.288C107.365 35.288 106.537 34.952 105.865 34.28C105.193 33.608 104.857 32.768 104.857 31.76C104.857 30.728 105.193 29.9 105.865 29.276C106.537 28.628 107.365 28.304 108.349 28.304C109.333 28.304 110.161 28.628 110.833 29.276C111.505 29.9 111.841 30.728 111.841 31.76C111.841 32.768 111.505 33.608 110.833 34.28C110.161 34.952 109.333 35.288 108.349 35.288ZM135.129 8.288V35H129.765V32.768C128.373 34.448 126.357 35.288 123.717 35.288C121.893 35.288 120.237 34.88 118.749 34.064C117.285 33.248 116.133 32.084 115.293 30.572C114.453 29.06 114.033 27.308 114.033 25.316C114.033 23.324 114.453 21.572 115.293 20.06C116.133 18.548 117.285 17.384 118.749 16.568C120.237 15.752 121.893 15.344 123.717 15.344C126.189 15.344 128.121 16.124 129.513 17.684V8.288H135.129ZM124.689 30.68C126.105 30.68 127.281 30.2 128.217 29.24C129.153 28.256 129.621 26.948 129.621 25.316C129.621 23.684 129.153 22.388 128.217 21.428C127.281 20.444 126.105 19.952 124.689 19.952C123.249 19.952 122.061 20.444 121.125 21.428C120.189 22.388 119.721 23.684 119.721 25.316C119.721 26.948 120.189 28.256 121.125 29.24C122.061 30.2 123.249 30.68 124.689 30.68ZM159.298 25.388C159.298 25.46 159.262 25.964 159.19 26.9H144.538C144.802 28.1 145.426 29.048 146.41 29.744C147.394 30.44 148.618 30.788 150.082 30.788C151.09 30.788 151.978 30.644 152.746 30.356C153.538 30.044 154.27 29.564 154.942 28.916L157.93 32.156C156.106 34.244 153.442 35.288 149.938 35.288C147.754 35.288 145.822 34.868 144.142 34.028C142.462 33.164 141.166 31.976 140.254 30.464C139.342 28.952 138.886 27.236 138.886 25.316C138.886 23.42 139.33 21.716 140.218 20.204C141.13 18.668 142.366 17.48 143.926 16.64C145.51 15.776 147.274 15.344 149.218 15.344C151.114 15.344 152.83 15.752 154.366 16.568C155.902 17.384 157.102 18.56 157.966 20.096C158.854 21.608 159.298 23.372 159.298 25.388ZM149.254 19.592C147.982 19.592 146.914 19.952 146.05 20.672C145.186 21.392 144.658 22.376 144.466 23.624H154.006C153.814 22.4 153.286 21.428 152.422 20.708C151.558 19.964 150.502 19.592 149.254 19.592ZM181.91 15.632L173.738 35H167.942L159.806 15.632H165.602L170.966 28.808L176.51 15.632H181.91Z" fill="#4F4F4F"/>
<path d="M41.9766 31.1576C40.5453 35.5869 37.9465 39.1725 34.1801 41.9145C30.4137 44.6564 26.1953 46.0274 21.525 46.0274C16.8547 46.0274 12.6363 44.6564 8.86988 41.9145C5.10348 39.1725 2.50466 35.5869 1.07342 31.1576C-0.357808 26.7283 -0.357808 22.2991 1.07342 17.8698C2.50466 13.4405 5.10348 9.85485 8.86988 7.11291C12.6363 4.37097 16.8547 3 21.525 3C26.1953 3 30.4137 4.37097 34.1801 7.11291C37.9465 9.85485 40.5453 13.4405 41.9766 17.8698C43.4078 22.2991 43.4078 26.7283 41.9766 31.1576Z" fill="url(#paint0_radial)"/>
<defs>
<radialGradient id="paint0_radial" cx="0" cy="0" r="1" gradientUnits="userSpaceOnUse" gradientTransform="translate(21.525 24.5137) scale(43.05 43.0274)">
<stop stop-color="#00DBDE"/>
<stop offset="1" stop-color="#FC00FF"/>
</radialGradient>
</defs>
</svg>
